<svg xmlns="http://www.w3.org/2000/svg" width="16.625" height="16.625" viewBox="0 0 16.625 16.625"><defs><style>.a{fill:#ffeda0;}</style></defs><g transform="translate(0 2.969)"><path class="a" d="M11.875,85.333H1.781A1.781,1.781,0,0,0,0,87.114V97.208a1.781,1.781,0,0,0,1.781,1.781H11.875a1.781,1.781,0,0,0,1.781-1.781V87.114A1.781,1.781,0,0,0,11.875,85.333Zm.594,11.875a.594.594,0,0,1-.594.594H1.781a.594.594,0,0,1-.594-.594V87.114a.594.594,0,0,1,.594-.594H11.875a.594.594,0,0,1,.594.594Z" transform="translate(0 -85.333)"/></g><g transform="translate(2.375)"><path class="a" d="M80.736,0H70.048a1.781,1.781,0,0,0-1.781,1.781.594.594,0,1,0,1.187,0,.594.594,0,0,1,.594-.594H80.736a.594.594,0,0,1,.594.594V12.469a.594.594,0,0,1-.594.594.594.594,0,0,0,0,1.188,1.781,1.781,0,0,0,1.781-1.781V1.781A1.781,1.781,0,0,0,80.736,0Z" transform="translate(-68.267)"/></g></svg>